<svg xmlns="http://www.w3.org/2000/svg" fill="none" width="98" height="41" viewBox="0 0 98 41">
    
<g transform="translate(0.000000,41.000000) scale(0.100000,-0.100000)"
fill="#53BCE6" stroke="none">
<path d="M100 295 l0 -105 390 0 390 0 0 105 0 105 -390 0 -390 0 0 -105z m92
50 c15 -33 -3 -75 -32 -75 -15 0 -20 -7 -20 -25 0 -16 -6 -25 -15 -25 -12 0
-15 15 -15 75 l0 75 35 0 c28 0 38 -5 47 -25z m123 12 c26 -19 10 -38 -25 -30
-29 5 -30 4 -30 -30 0 -39 14 -55 33 -38 8 6 18 6 27 1 21 -13 -6 -40 -39 -40
-40 0 -53 14 -58 63 -4 36 -1 49 16 66 24 24 49 27 76 8z m269 -6 c21 -23 8
-34 -28 -25 -30 7 -42 -12 -32 -52 6 -22 11 -25 32 -20 33 9 49 -1 33 -20 -6
-8 -26 -14 -45 -14 -39 0 -54 21 -54 76 0 65 56 98 94 55z m123 -3 c48 -45 20
-128 -43 -128 l-34 0 0 75 c0 75 0 75 27 75 15 0 37 -10 50 -22z m106 -10 l16
-33 0 33 c1 25 5 32 21 32 18 0 20 -7 20 -75 0 -65 -2 -75 -17 -75 -10 0 -28
17 -40 38 l-22 37 -1 -37 c0 -27 -4 -38 -15 -38 -12 0 -15 15 -15 75 0 66 2
75 18 75 11 0 25 -14 35 -32z m-353 -43 c0 -11 -12 -15 -50 -15 -38 0 -50 4
-50 15 0 11 12 15 50 15 38 0 50 -4 50 -15z"/>
<path d="M185 109 c-13 -19 4 -59 25 -59 11 0 20 5 20 10 0 6 -7 10 -15 10 -9
0 -15 9 -15 21 0 15 5 19 15 15 8 -3 15 -1 15 4 0 13 -37 13 -45 -1z"/>
<path d="M300 85 c0 -19 5 -35 10 -35 6 0 10 7 10 15 0 8 5 15 10 15 6 0 10 9
10 20 0 13 -7 20 -20 20 -16 0 -20 -7 -20 -35z"/>
<path d="M350 85 c0 -19 5 -35 10 -35 6 0 10 6 10 14 0 8 6 17 13 19 9 4 9 8
-2 15 -11 8 -11 10 0 15 8 3 4 6 -8 6 -20 1 -23 -4 -23 -34z"/>
<path d="M400 85 c0 -28 4 -35 20 -35 25 0 27 20 3 21 -15 0 -15 2 2 9 20 8
20 8 1 16 -19 7 -19 8 0 15 17 7 17 8 -3 8 -20 1 -23 -4 -23 -34z"/>
<path d="M450 85 c0 -28 4 -35 20 -35 11 0 20 6 20 14 0 8 6 17 13 19 9 4 8 8
-3 16 -13 9 -13 11 3 11 12 0 17 -8 17 -30 0 -16 5 -30 10 -30 6 0 10 6 10 14
0 8 6 17 13 19 9 4 8 8 -3 16 -13 9 -13 11 3 11 12 0 17 -8 17 -30 0 -30 1
-31 44 -29 33 2 44 7 44 18 -1 9 1 23 3 31 3 13 -14 15 -103 18 l-108 3 0 -36z
m170 0 c0 -18 -4 -23 -16 -18 -13 5 -13 7 -2 14 11 7 10 11 -2 19 -13 8 -12
10 3 10 11 0 17 -8 17 -25z"/>
<path d="M690 92 c0 -17 -6 -33 -12 -36 -7 -3 3 -4 22 -3 32 2 35 5 35 32 0
23 -5 31 -22 33 -20 3 -23 -1 -23 -26z"/>
<path d="M750 85 c0 -31 3 -35 25 -35 14 0 25 5 25 10 0 6 -8 10 -17 10 -15 0
-16 2 -3 10 13 8 13 11 1 19 -11 7 -10 10 5 14 13 3 11 5 -8 6 -25 1 -28 -2
-28 -34z"/>
<path d="M240 90 c0 -5 11 -10 25 -10 14 0 25 5 25 10 0 6 -11 10 -25 10 -14
0 -25 -4 -25 -10z"/>
</g>
</svg>
